<!DOCTYPE svg PUBLIC "-//W3C//DTD SVG 1.1//EN" "http://www.w3.org/Graphics/SVG/1.1/DTD/svg11.dtd">
<!-- Uploaded to: SVG Repo, www.svgrepo.com, Transformed by: SVG Repo Mixer Tools -->
<svg fill="#000000" version="1.1" xmlns="http://www.w3.org/2000/svg" xmlns:xlink="http://www.w3.org/1999/xlink" width="800px" height="800px" viewBox="-51.2 -51.2 614.40 614.40" enable-background="new 0 0 512 512" xml:space="preserve" stroke="#000000">
<g id="SVGRepo_bgCarrier" stroke-width="0" transform="translate(0,0), scale(1)">
<path transform="translate(-51.2, -51.2), scale(38.4)" fill="#ffffff" d="M9.166.33a2.25 2.25 0 00-2.332 0l-5.25 3.182A2.25 2.25 0 00.5 5.436v5.128a2.25 2.25 0 001.084 1.924l5.25 3.182a2.25 2.25 0 002.332 0l5.25-3.182a2.25 2.25 0 001.084-1.924V5.436a2.25 2.25 0 00-1.084-1.924L9.166.33z" strokewidth="0"/>
</g>
<g id="SVGRepo_tracerCarrier" stroke-linecap="round" stroke-linejoin="round" stroke="#CCCCCC" stroke-width="1.024"/>
<g id="SVGRepo_iconCarrier"> <g id="2069a460dcf28295e231f3111e040073"> <path display="inline" fill-rule="evenodd" clip-rule="evenodd" d="M457.832,418.164L128.831,511.5L63.499,308.497L19.163,42.5 l312.67-42l161.004,123.667L457.832,418.164z M133.499,383.169l100.335-25.668l-25.668-49.004l-93.335,21.005L133.499,383.169z M103.163,240.83l98.003-20.996l25.668,46.664l109.668-23.332l-67.668-84.004L84.499,191.835L103.163,240.83z M324.833,30.832 l-272.997,35l18.663,42l195.999-28l72.335,72.336l114.336-18.668L324.833,30.832z"> </path> </g> </g>
</svg>